<svg width="32" height="32" viewBox="0 0 32 32" fill="none" xmlns="http://www.w3.org/2000/svg">
<path d="M5.0918 11.1484V13.5727V14.7848V18.4212V19.6333V25.6939V26.906C5.0918 28.2454 6.17713 29.3303 7.51604 29.3303H24.4857C25.8251 29.3303 26.91 28.2454 26.91 26.906V25.6939V19.6333V14.7848V11.1484H5.0918Z" fill="#16A085"/>
<path d="M5.0918 9.9375V12.3617V13.5739V17.2102V18.4223V24.483V25.6951C5.0918 27.0284 6.17713 28.1193 7.51604 28.1193H24.4857C25.8251 28.1193 26.91 27.0284 26.91 25.6951V24.483V18.4223V13.5739V9.9375H5.0918Z" fill="#ECF0F1"/>
<path d="M5.0918 8.72656V11.1508V12.3629V15.9993V17.2114V23.272V24.4841C5.0918 25.8175 6.17713 26.9084 7.51604 26.9084H24.4857C25.8251 26.9084 26.91 25.8175 26.91 24.4841V23.272V17.2114V12.3629V8.72656H5.0918Z" fill="#BDC3C7"/>
<path d="M5.0918 7.51562V9.93987V11.152V14.7884V16.0005V22.0611V23.2732C5.0918 24.6065 6.17713 25.6974 7.51604 25.6974H24.4857C25.8251 25.6974 26.91 24.6065 26.91 23.2732V22.0611V16.0005V11.152V7.51562H5.0918Z" fill="#ECF0F1"/>
<path d="M7.51604 2.66406C6.17713 2.66406 5.0918 3.7494 5.0918 5.0883V6.30043V11.1489V13.5732V14.7853V18.4216V19.6338V25.6944V26.9065C5.0918 28.2459 6.17713 29.3307 7.51604 29.3307H9.94028V28.1186H8.1221C7.11798 28.1186 6.30392 27.3041 6.30392 26.3004C6.30392 25.2968 7.11798 24.4822 8.1221 24.4822H23.2736H24.4857C25.8251 24.4822 26.91 23.3974 26.91 22.058V20.8459V14.7853V9.93679V6.30043V5.0883C26.91 3.7494 25.8251 2.66406 24.4857 2.66406H19.6373H7.51604Z" fill="#16A085"/>
<path d="M11.1523 2.66406V24.4822H12.3645H23.2736H24.4857C25.8251 24.4822 26.9099 23.3974 26.9099 22.058V20.8459V14.7853V9.93679V6.30043V5.0883C26.9099 3.7494 25.8251 2.66406 24.4857 2.66406H19.6372H12.3645H11.1523Z" fill="#1ABC9C"/>
</svg>
