<svg width="15" height="12" viewBox="0 0 15 12" fill="none" xmlns="http://www.w3.org/2000/svg">
<path d="M5.21967 0.21967C5.51256 -0.0732233 5.98732 -0.0732233 6.28022 0.21967C6.57311 0.512563 6.57311 0.987324 6.28022 1.28022L2.56049 4.99994H14.083L14.1601 5.00385C14.5382 5.04232 14.833 5.36167 14.833 5.74994C14.833 6.13822 14.5382 6.45756 14.1601 6.49604L14.083 6.49994H2.56049L6.28022 10.2197L6.33197 10.2763C6.57228 10.5709 6.55482 11.0056 6.28022 11.2802C6.00561 11.5548 5.57089 11.5723 5.27631 11.332L5.21967 11.2802L0.21967 6.28022C-0.0732233 5.98732 -0.0732233 5.51256 0.21967 5.21967L5.21967 0.21967Z" fill="#1F2937"/>
</svg>
