<svg width="20" height="20" viewBox="0 0 20 20" fill="none" xmlns="http://www.w3.org/2000/svg">
<path d="M14.166 1.33203C14.58 1.33221 14.9158 1.66808 14.916 2.08203V2.65723C15.0928 2.67225 15.2622 2.68921 15.4238 2.71094C16.4144 2.84419 17.2361 3.12772 17.8867 3.77832C18.5373 4.42897 18.8209 5.25054 18.9541 6.24121C19.0844 7.21044 19.083 8.44905 19.083 9.99902V11.665C19.083 13.215 19.0844 14.4536 18.9541 15.4229C18.8209 16.4135 18.5371 17.2351 17.8867 17.8857C17.2361 18.5363 16.4144 18.8199 15.4238 18.9531C14.4546 19.0834 13.216 19.082 11.666 19.082H8.33301C6.78301 19.082 5.54446 19.0834 4.5752 18.9531C3.58432 18.8199 2.76304 18.5365 2.11231 17.8857C1.46157 17.235 1.17814 16.4137 1.04492 15.4229C0.91464 14.4536 0.916016 13.215 0.916016 11.665V9.99902C0.916016 8.44903 0.914612 7.21045 1.04492 6.24121C1.17816 5.25049 1.46165 4.42897 2.11231 3.77832C2.76299 3.12782 3.58448 2.84414 4.5752 2.71094C4.73658 2.68925 4.90553 2.67223 5.08203 2.65723V2.08203C5.08221 1.66808 5.41808 1.33221 5.83203 1.33203C6.24614 1.33203 6.58186 1.66797 6.58203 2.08203V2.59277C7.11525 2.5841 7.69813 2.58203 8.33301 2.58203H11.666C12.3006 2.58203 12.883 2.58411 13.416 2.59277V2.08203C13.4162 1.66797 13.7519 1.33203 14.166 1.33203ZM2.42676 8.24902C2.41836 8.76061 2.41602 9.33917 2.41602 9.99902V11.665C2.41602 13.2572 2.41758 14.3766 2.53125 15.2227C2.64211 16.0472 2.84727 16.4996 3.17285 16.8252C3.49843 17.1508 3.95084 17.3559 4.77539 17.4668C5.62144 17.5805 6.74085 17.582 8.33301 17.582H11.666C13.2584 17.582 14.3776 17.5805 15.2236 17.4668C16.0479 17.3559 16.5006 17.1507 16.8262 16.8252C17.1515 16.4997 17.357 16.0468 17.4678 15.2227C17.5814 14.3766 17.583 13.2571 17.583 11.665V9.99902C17.583 9.33918 17.5807 8.76061 17.5723 8.24902H2.42676ZM8.33301 4.08203C6.74091 4.08203 5.62143 4.0836 4.77539 4.19727C3.95112 4.30809 3.49841 4.51348 3.17285 4.83887C2.84732 5.1644 2.64212 5.61709 2.53125 6.44141C2.518 6.54 2.50647 6.64269 2.49609 6.74902H17.502C17.4916 6.6427 17.481 6.53999 17.4678 6.44141C17.3569 5.61717 17.1516 5.1644 16.8262 4.83887C16.5006 4.51332 16.048 4.30813 15.2236 4.19727C14.3776 4.08352 13.2584 4.08203 11.666 4.08203H8.33301Z" fill="#9CA3AF"/>
</svg>
