<svg width="16" height="16" viewBox="0 0 16 16" fill="none" xmlns="http://www.w3.org/2000/svg">
<g clip-path="url(#clip0_2026_227163)">
<path fill-rule="evenodd" clip-rule="evenodd" d="M8.00098 1.83203C11.4066 1.83221 14.167 4.59338 14.167 7.99902C14.1668 11.4045 11.4065 14.1649 8.00098 14.165C4.59533 14.165 1.83416 11.4046 1.83398 7.99902C1.83398 4.59327 4.59522 1.83203 8.00098 1.83203ZM8.00098 15.165C11.9588 15.1649 15.1668 11.9568 15.167 7.99902C15.167 4.04109 11.9589 0.832207 8.00098 0.832031C4.04294 0.832031 0.833984 4.04098 0.833984 7.99902C0.83416 11.9569 4.04304 15.165 8.00098 15.165ZM10.6878 5.97852C10.4926 5.78331 10.1761 5.78342 9.98079 5.97852L7.00033 8.95801L6.02083 7.97852C5.82557 7.78325 5.50906 7.78325 5.3138 7.97852C5.11854 8.17378 5.11854 8.49028 5.3138 8.68555L6.64681 10.0186C6.84207 10.2138 7.15858 10.2138 7.35384 10.0186L10.6878 6.68555C10.8829 6.49033 10.8829 6.17374 10.6878 5.97852Z" fill="#10B981"/>
</g>
<defs>
<clipPath id="clip0_2026_227163">
<rect width="16" height="16" fill="white"/>
</clipPath>
</defs>
</svg>
