<?xml version="1.0" encoding="utf-8"?>
<!-- Generator: Adobe Illustrator 26.0.0, SVG Export Plug-In . SVG Version: 6.00 Build 0)  -->
<svg version="1.1" id="Layer_1" xmlns="http://www.w3.org/2000/svg" xmlns:xlink="http://www.w3.org/1999/xlink" x="0px" y="0px"
	 width="140px" height="50px" viewBox="0 0 140 50" style="enable-background:new 0 0 140 50;" xml:space="preserve">
<style type="text/css">
	.st0{fill:#FFFFFF;}
</style>
<g>
	<path d="M4,0h132c2.2,0,4,1.8,4,4v42c0,2.2-1.8,4-4,4H4c-2.2,0-4-1.8-4-4V4C0,1.8,1.8,0,4,0z"/>
</g>
<path class="st0" d="M30.8,25.6c0-1.7,0.9-3.3,2.4-4.2c-0.9-1.3-2.4-2.1-4-2.2c-1.7-0.2-3.3,1-4.2,1c-0.9,0-2.2-1-3.6-1
	c-1.8,0.1-3.6,1.1-4.5,2.7c-1.9,3.3-0.5,8.3,1.4,11c0.9,1.3,2,2.8,3.4,2.8c1.4-0.1,1.9-0.9,3.6-0.9s2.1,0.9,3.6,0.9s2.4-1.3,3.3-2.7
	c0.7-0.9,1.2-2,1.5-3.1C32,29.2,30.8,27.5,30.8,25.6z"/>
<path class="st0" d="M28.1,17.5c0.8-1,1.2-2.2,1.1-3.5c-1.2,0.1-2.4,0.7-3.2,1.7c-0.8,0.9-1.2,2.1-1.1,3.4
	C26.1,19,27.3,18.5,28.1,17.5z"/>
<path class="st0" d="M41.9,21h2.4c2.2,0,3.8-1.4,3.8-3.4s-1.6-3.4-3.8-3.4h-2.4V21z M42.9,20.1v-5h1.4c1.6,0,2.7,1,2.7,2.5
	s-1.1,2.5-2.7,2.5H42.9z M51.8,21.1c1.5,0,2.7-1.2,2.7-2.7s-1.2-2.7-2.7-2.7s-2.7,1.2-2.7,2.7S50.3,21.1,51.8,21.1z M51.8,20.3
	c-1,0-1.7-0.8-1.7-1.8s0.8-1.8,1.7-1.8s1.7,0.8,1.7,1.8C53.5,19.4,52.7,20.3,51.8,20.3z M56.8,21h0.9l1.2-3.8l1.2,3.8H61l1.7-5.2h-1
	l-1.2,3.8l-1.3-3.8h-0.8l-1.3,3.8L56,15.8h-1L56.8,21z M66.4,15.7c-0.7,0-1.3,0.4-1.6,0.9v-0.8h-1V21h1v-3.3
	c0.1-0.6,0.7-1.1,1.4-1.1c0.7,0,1.2,0.5,1.2,1.3V21h1v-3.3C68.4,16.5,67.6,15.7,66.4,15.7z M69.8,21h1v-7h-1V21z M74.7,21.1
	c1.5,0,2.7-1.2,2.7-2.7s-1.2-2.7-2.7-2.7S72,16.9,72,18.4S73.2,21.1,74.7,21.1z M74.7,20.3c-0.9,0-1.7-0.8-1.7-1.8s0.8-1.8,1.7-1.8
	c0.9,0,1.7,0.8,1.7,1.8C76.4,19.4,75.6,20.3,74.7,20.3z M80.7,15.7c-0.6,0-1.2,0.2-2,0.5l0.4,0.7c0.4-0.2,0.9-0.4,1.5-0.4
	c1,0,1.3,0.7,1.3,1.3V18c-0.5-0.2-1-0.3-1.6-0.3c-1.1,0-2.1,0.7-2.1,1.7S79,21,80.1,21c0.6,0,1.3-0.3,1.7-0.8V21h1v-3.1
	C82.9,16.6,82.1,15.7,80.7,15.7z M80.4,20.3c-0.6,0-1.1-0.3-1.1-0.9s0.6-0.9,1.3-0.9c0.5,0,1,0.1,1.4,0.2v0.7
	C81.7,20,81,20.3,80.4,20.3z M88.3,14v2.7c-0.4-0.6-1-1-1.8-1c-1.4,0-2.4,1.1-2.4,2.7s1,2.7,2.4,2.7c0.8,0,1.4-0.4,1.8-1V21h1v-7
	H88.3z M86.7,20.3c-0.9,0-1.6-0.8-1.6-1.8c0-1.1,0.7-1.8,1.6-1.8s1.6,0.8,1.6,1.8C88.3,19.5,87.6,20.3,86.7,20.3z M96,21.1
	c1.5,0,2.7-1.2,2.7-2.7s-1.2-2.7-2.7-2.7s-2.7,1.2-2.7,2.7S94.6,21.1,96,21.1z M96,20.3c-0.9,0-1.7-0.8-1.7-1.8s0.8-1.8,1.7-1.8
	c0.9,0,1.7,0.8,1.7,1.8C97.8,19.4,97,20.3,96,20.3z M102.5,15.7c-0.7,0-1.3,0.4-1.6,0.9v-0.8h-1V21h1v-3.3c0.1-0.6,0.7-1.1,1.4-1.1
	c0.7,0,1.2,0.5,1.2,1.3V21h1v-3.3C104.5,16.5,103.7,15.7,102.5,15.7z M111.2,20.1c-0.1,0.1-0.3,0.2-0.5,0.2c-0.3,0-0.5-0.3-0.5-0.6
	v-3h1.2v-0.8h-1.2v-1.4h-1v1.4h-0.8v0.8h0.8v3c0,0.8,0.6,1.4,1.4,1.4c0.4,0,0.8-0.1,1-0.4L111.2,20.1z M115.2,15.7
	c-0.7,0-1.3,0.4-1.6,0.9V14h-1v7h1v-3.2c0-0.7,0.6-1.2,1.4-1.2c0.7,0,1.2,0.5,1.2,1.3V21h1v-3.3C117.1,16.5,116.3,15.7,115.2,15.7z
	 M120.9,20.2c-0.9,0-1.5-0.6-1.7-1.5h4.1c0-1.8-0.9-3-2.5-3c-1.4,0-2.6,1.1-2.6,2.7s1.2,2.7,2.7,2.7c0.7,0,1.6-0.3,2.1-0.8l-0.6-0.6
	C122.1,20,121.4,20.2,120.9,20.2z M120.9,16.6c0.9,0,1.4,0.6,1.5,1.4h-3.1C119.4,17.1,120.1,16.6,120.9,16.6z"/>
<path class="st0" d="M49,34h2.3l-3.9-9.6h-2.3L41.2,34h2.3l0.6-1.5h4.3L49,34z M44.8,30.7l1.4-3.5l1.4,3.5H44.8z M56.9,26.6
	c-1,0-1.8,0.4-2.4,1.2v-1h-2v9.6h2V33c0.6,0.8,1.4,1.2,2.4,1.2c1.9,0,3.3-1.6,3.3-3.8S58.8,26.6,56.9,26.6z M56.3,32.4
	c-1,0-1.7-0.7-1.8-1.8V30c0.1-1.1,0.8-1.8,1.8-1.8c1.1,0,1.9,0.9,1.9,2.1C58.2,31.6,57.4,32.4,56.3,32.4z M66.1,26.6
	c-1,0-1.8,0.4-2.4,1.2v-1h-2v9.6h2V33c0.6,0.8,1.4,1.2,2.4,1.2c1.9,0,3.3-1.6,3.3-3.8S68.1,26.6,66.1,26.6z M65.5,32.4
	c-1,0-1.7-0.7-1.8-1.8V30c0.1-1.1,0.8-1.8,1.8-1.8c1.1,0,1.9,0.9,1.9,2.1C67.5,31.6,66.7,32.4,65.5,32.4z M78.5,34.2
	c2.4,0,3.7-1.2,3.7-3.1c0-1.8-1.4-2.4-3.4-2.9c-1.5-0.3-2.1-0.6-2.1-1.3c0-0.6,0.5-1,1.4-1s1.9,0.4,2.7,1.1l1.1-1.5
	c-1-0.8-2.2-1.3-3.8-1.3c-2.1,0-3.6,1.2-3.6,3c0,1.9,1.4,2.4,3.5,2.9c1.5,0.3,2,0.5,2,1.2c0,0.6-0.5,1.1-1.6,1.1
	c-1.2,0-2.3-0.5-3.2-1.3L74,32.5C75.3,33.6,76.8,34.2,78.5,34.2z M87.5,32.2c-0.1,0.1-0.4,0.2-0.7,0.2c-0.4,0-0.7-0.3-0.7-0.8v-3.2
	h1.6v-1.7h-1.6v-2h-2v2h-1v1.7h1V32c0,1.3,0.9,2.2,2.2,2.2c0.6,0,1.2-0.3,1.7-0.6L87.5,32.2z M92.8,34.2c2.1,0,3.9-1.7,3.9-3.8
	s-1.8-3.8-3.9-3.8c-2.2,0-4,1.7-4,3.8S90.6,34.2,92.8,34.2z M92.8,32.4c-1.1,0-2-1-2-2.1s0.9-2.1,2-2.1s2,0.9,2,2.1
	S93.9,32.4,92.8,32.4z M100.2,28.1v-1.3h-2V34h2v-3.5c0-1.4,1-2.2,2.5-2.2v-1.7C101.5,26.6,100.6,27.2,100.2,28.1z M107.2,32.4
	c-0.9,0-1.5-0.5-1.7-1.3h5.2c0-2.7-1.3-4.5-3.6-4.5c-2.1,0-3.7,1.6-3.7,3.8s1.7,3.8,3.8,3.8c1.1,0,2.3-0.4,3-1.1l-1.3-1.3
	C108.5,32.1,107.8,32.4,107.2,32.4z M107.2,28.4c0.8,0,1.4,0.5,1.6,1.2h-3.2C105.8,28.8,106.4,28.4,107.2,28.4z"/>
</svg>
