<?xml version="1.0" encoding="utf-8"?>
<!-- Generator: Adobe Illustrator 26.0.0, SVG Export Plug-In . SVG Version: 6.00 Build 0)  -->
<svg version="1.1" id="Layer_1" xmlns="http://www.w3.org/2000/svg" xmlns:xlink="http://www.w3.org/1999/xlink" x="0px" y="0px"
	 width="140px" height="50px" viewBox="0 0 140 50" style="enable-background:new 0 0 140 50;" xml:space="preserve">
<style type="text/css">
	.st0{fill:#FFFFFF;}
	.st1{fill:url(#SVGID_1_);}
	.st2{fill:url(#SVGID_00000077292658799139327270000002319753212988601266_);}
	.st3{fill:url(#SVGID_00000142878208465546947180000008905706444554046093_);}
	.st4{fill:url(#SVGID_00000121265951508201912500000011536925624369027005_);}
</style>
<g>
	<path d="M4,0h132c2.2,0,4,1.8,4,4v42c0,2.2-1.8,4-4,4H4c-2.2,0-4-1.8-4-4V4C0,1.8,1.8,0,4,0z"/>
</g>
<path class="st0" d="M46.9,18.2h1.8v1.4c-0.5,0.4-1.1,0.6-1.7,0.6c-1.4,0-2.5-1.2-2.5-2.6S45.7,15,47,15c0.7,0,1.5,0.3,2,0.8
	l0.7-0.7C49.1,14.4,48,14,47.1,14c-1.9,0-3.6,1.6-3.6,3.6s1.6,3.6,3.6,3.6c1,0,2.1-0.4,2.7-1.1v-2.7H47L46.9,18.2L46.9,18.2z
	 M53.5,20.2c-0.9,0-1.5-0.6-1.7-1.5H56c0-1.8-0.9-3-2.5-3c-1.4,0-2.6,1.1-2.6,2.7s1.2,2.7,2.7,2.7c0.7,0,1.6-0.3,2.1-0.8L55,19.7
	C54.7,20,54.1,20.2,53.5,20.2z M53.5,16.6c0.9,0,1.4,0.6,1.5,1.4h-3.1C52.1,17.1,52.7,16.6,53.5,16.6z M59.5,20.1
	c-0.1,0.1-0.3,0.2-0.5,0.2c-0.3,0-0.5-0.3-0.5-0.6v-3h1.2v-0.8h-1.2v-1.4h-1v1.4h-0.8v0.8h0.8v3c0,0.8,0.6,1.4,1.4,1.4
	c0.4,0,0.8-0.1,1-0.4L59.5,20.1z M64.2,15c0.3,0,0.6-0.3,0.6-0.6s-0.3-0.6-0.6-0.6c-0.3,0-0.6,0.3-0.6,0.6S63.9,15,64.2,15z
	 M63.7,21h1v-5.2h-1C63.7,15.8,63.7,21,63.7,21z M68.6,20.1c-0.1,0.1-0.3,0.2-0.5,0.2c-0.3,0-0.5-0.3-0.5-0.6v-3h1.2v-0.8h-1.2v-1.4
	h-1v1.4h-0.8v0.8h0.8v3c0,0.8,0.6,1.4,1.4,1.4c0.4,0,0.8-0.1,1-0.4L68.6,20.1z M76.1,21.1c1.9,0,3.6-1.6,3.6-3.6S78.1,14,76.1,14
	c-1.9,0-3.6,1.6-3.6,3.6S74.2,21.1,76.1,21.1z M76.1,20.2c-1.4,0-2.5-1.2-2.5-2.6s1.2-2.6,2.5-2.6s2.5,1.2,2.5,2.6
	C78.7,19,77.5,20.2,76.1,20.2z M83.5,15.7c-0.7,0-1.3,0.4-1.6,0.9v-0.8h-1V21h1v-3.3c0.1-0.6,0.7-1.1,1.4-1.1c0.7,0,1.2,0.5,1.2,1.3
	V21h1v-3.3C85.5,16.5,84.7,15.7,83.5,15.7z"/>
<path class="st0" d="M48.4,30.2h2.2v1.5c-0.5,0.4-1.2,0.6-1.9,0.6c-1.6,0-3-1.4-3-3.1s1.4-3.1,3-3.1c0.9,0,1.8,0.4,2.4,1.1l1.5-1.3
	c-1-1-2.4-1.6-3.9-1.6c-2.8,0-5.2,2.3-5.2,5s2.4,5,5.2,5c1.4,0,2.9-0.6,3.9-1.6v-4h-4.3L48.4,30.2L48.4,30.2z M57.9,34.2
	c2.1,0,3.9-1.7,3.9-3.8s-1.8-3.8-3.9-3.8c-2.2,0-4,1.7-4,3.8S55.7,34.2,57.9,34.2z M57.9,32.4c-1.1,0-2-1-2-2.1s0.9-2.1,2-2.1
	s2,0.9,2,2.1S58.9,32.4,57.9,32.4z M66.7,34.2c2.1,0,3.9-1.7,3.9-3.8s-1.8-3.8-3.9-3.8c-2.2,0-4,1.7-4,3.8S64.6,34.2,66.7,34.2z
	 M66.7,32.4c-1.1,0-2-1-2-2.1s0.9-2.1,2-2.1s2,0.9,2,2.1S67.8,32.4,66.7,32.4z M77.3,26.8v1c-0.5-0.7-1.4-1.1-2.4-1.1
	c-1.8,0-3.2,1.4-3.2,3.4s1.4,3.4,3.2,3.4c1,0,1.8-0.4,2.4-1.1v0.8c0,0.9-0.8,1.5-2.2,1.5c-0.8,0-1.7-0.3-2.2-0.7l-0.7,1.4
	c0.7,0.6,1.9,1,3.2,1c2.3,0,3.9-1.3,3.9-3.2v-6.5L77.3,26.8L77.3,26.8z M75.5,31.7c-1,0-1.8-0.7-1.8-1.7s0.7-1.7,1.8-1.7
	c1,0,1.8,0.7,1.8,1.7S76.6,31.7,75.5,31.7z M81.1,34h2v-9.8h-2V34z M88.4,32.4c-0.9,0-1.5-0.5-1.7-1.3h5.2c0-2.7-1.3-4.5-3.6-4.5
	c-2.1,0-3.7,1.6-3.7,3.8s1.7,3.8,3.8,3.8c1.1,0,2.3-0.4,3-1.1L90,31.7C89.7,32.1,89,32.4,88.4,32.4z M88.4,28.4
	c0.8,0,1.4,0.5,1.6,1.2h-3.2C87,28.8,87.6,28.4,88.4,28.4z M97.2,34h2.1v-3.1h2.3c2.1,0,3.6-1.3,3.6-3.2s-1.5-3.2-3.6-3.2h-4.3
	L97.2,34L97.2,34z M99.3,29v-2.7h2c1,0,1.7,0.5,1.7,1.4s-0.7,1.4-1.7,1.4L99.3,29L99.3,29z M106.4,34h2v-9.8h-2V34z M113.5,26.6
	c-1,0-2,0.3-3,0.8l0.7,1.4c0.6-0.3,1.2-0.5,1.9-0.5c1.2,0,1.7,0.7,1.7,1.4v0.1c-0.6-0.2-1.3-0.4-1.8-0.4c-1.7,0-3,1-3,2.4
	c0,1.4,1.2,2.3,2.7,2.3c0.8,0,1.6-0.3,2.1-0.9V34h2v-4.3C116.7,27.8,115.4,26.6,113.5,26.6z M113,32.8c-0.7,0-1.2-0.4-1.2-1
	c0-0.6,0.6-1,1.3-1c0.6,0,1.1,0.1,1.6,0.3v0.7C114.5,32.4,113.8,32.8,113,32.8z M120,36.5c1.1,0,2.1-0.7,2.6-2.2l3-7.6h-2.1
	l-1.8,5.1l-1.9-5.1h-2.1l3,7.3l-0.3,0.5c-0.2,0.3-0.5,0.4-0.9,0.4c-0.2,0-0.6-0.1-1-0.3l-0.4,1.4C118.7,36.3,119.4,36.5,120,36.5z"
	/>
<g>
	
		<linearGradient id="SVGID_1_" gradientUnits="userSpaceOnUse" x1="24.8548" y1="739.5952" x2="8.0728" y2="756.3773" gradientTransform="matrix(1 0 0 1 0 -726)">
		<stop  offset="0" style="stop-color:#00A0FF"/>
		<stop  offset="6.599999e-03" style="stop-color:#00A1FF"/>
		<stop  offset="0.2601" style="stop-color:#00BEFF"/>
		<stop  offset="0.5122" style="stop-color:#00D2FF"/>
		<stop  offset="0.7604" style="stop-color:#00DFFF"/>
		<stop  offset="1" style="stop-color:#00E3FF"/>
	</linearGradient>
	<path class="st1" d="M13.5,12.4c-0.3,0.3-0.5,0.8-0.5,1.4v22.1c0,0.6,0.2,1.1,0.5,1.4l0.1,0.1L25.9,25v-0.1v-0.1L13.5,12.4
		L13.5,12.4z"/>
	
		<linearGradient id="SVGID_00000082331590669882315710000006011336771521697183_" gradientUnits="userSpaceOnUse" x1="36.8603" y1="750.9" x2="12.6644" y2="750.9" gradientTransform="matrix(1 0 0 1 0 -726)">
		<stop  offset="0" style="stop-color:#FFE000"/>
		<stop  offset="0.4087" style="stop-color:#FFBD00"/>
		<stop  offset="0.7754" style="stop-color:#FFA500"/>
		<stop  offset="1" style="stop-color:#FF9C00"/>
	</linearGradient>
	<path style="fill:url(#SVGID_00000082331590669882315710000006011336771521697183_);" d="M30.1,29.1L25.9,25v-0.1v-0.1l4.1-4.1
		l0.1,0.1l4.9,2.8c1.4,0.8,1.4,2.1,0,2.9L30.1,29.1L30.1,29.1z"/>
	<g>
		
			<linearGradient id="SVGID_00000100379226693620148160000014762194530878863294_" gradientUnits="userSpaceOnUse" x1="27.8503" y1="753.1497" x2="5.0918" y2="775.9082" gradientTransform="matrix(1 0 0 1 0 -726)">
			<stop  offset="0" style="stop-color:#FF3A44"/>
			<stop  offset="1" style="stop-color:#C31162"/>
		</linearGradient>
		<path style="fill:url(#SVGID_00000100379226693620148160000014762194530878863294_);" d="M30.1,29.1l-4.2-4.2L13.5,37.3
			c0.5,0.5,1.2,0.5,2.1,0.1L30.1,29.1z"/>
	</g>
	
		<linearGradient id="SVGID_00000057857974805669030510000013832209584123401125_" gradientUnits="userSpaceOnUse" x1="10.3051" y1="731.0551" x2="20.4674" y2="741.2174" gradientTransform="matrix(1 0 0 1 0 -726)">
		<stop  offset="0" style="stop-color:#32A071"/>
		<stop  offset="6.850000e-02" style="stop-color:#2DA771"/>
		<stop  offset="0.4762" style="stop-color:#15CF74"/>
		<stop  offset="0.8009" style="stop-color:#06E775"/>
		<stop  offset="1" style="stop-color:#00F076"/>
	</linearGradient>
	<path style="fill:url(#SVGID_00000057857974805669030510000013832209584123401125_);" d="M30.1,20.6l-14.6-8.3
		c-0.9-0.5-1.6-0.4-2.1,0.1l12.5,12.5L30.1,20.6z"/>
</g>
</svg>
