<svg width="16" height="16" viewBox="0 0 16 16" fill="none" xmlns="http://www.w3.org/2000/svg">
<g clip-path="url(#clip0_2026_227167)">
<path fill-rule="evenodd" clip-rule="evenodd" d="M8.00098 1.83203C11.4066 1.83221 14.167 4.59338 14.167 7.99902C14.1668 11.4045 11.4065 14.1649 8.00098 14.165C4.59533 14.165 1.83416 11.4046 1.83398 7.99902C1.83398 4.59327 4.59522 1.83203 8.00098 1.83203ZM8.00098 15.165C11.9588 15.1649 15.1668 11.9568 15.167 7.99902C15.167 4.04109 11.9589 0.832207 8.00098 0.832031C4.04294 0.832031 0.833984 4.04098 0.833984 7.99902C0.83416 11.9569 4.04304 15.165 8.00098 15.165ZM10.0205 5.9785C9.82523 5.7834 9.50868 5.78329 9.31348 5.9785L8 7.291L6.6875 5.9785C6.49224 5.78324 6.17573 5.78325 5.98047 5.9785C5.78521 6.17376 5.78521 6.49027 5.98047 6.68553L7.29297 7.99803L5.98047 9.31151C5.78526 9.50672 5.78537 9.82327 5.98047 10.0185C6.17573 10.2138 6.49224 10.2138 6.6875 10.0185L8 8.70506L9.31348 10.0185C9.50874 10.2138 9.82525 10.2138 10.0205 10.0185C10.2158 9.82328 10.2158 9.50677 10.0205 9.31151L8.70703 7.99803L10.0205 6.68553C10.2158 6.49027 10.2158 6.17376 10.0205 5.9785Z" fill="#DC2626"/>
</g>
<defs>
<clipPath id="clip0_2026_227167">
<rect width="16" height="16" fill="white"/>
</clipPath>
</defs>
</svg>
