<svg width="32" height="32" viewBox="0 0 32 32" fill="none" xmlns="http://www.w3.org/2000/svg">
<path d="M4.15989 11.6406C5.10417 11.866 6.20361 12.2381 7.17346 12.2892C7.60451 12.3121 7.8405 12.2227 7.9752 11.7931C7.98986 11.746 7.95201 11.7317 8.0434 11.7426C8.20334 12.4775 8.8731 12.4993 9.49205 12.56C9.92344 12.6023 10.4987 12.6603 10.9226 12.6654C11.1562 12.6681 11.455 12.5327 11.5815 12.3336L11.723 12.0157C11.7366 12.3585 12.0517 12.6814 12.3907 12.7281C13.0455 12.8182 13.8925 12.7585 14.5695 12.7639C14.6783 12.765 14.7826 12.8035 14.9098 12.8015C15.4418 12.7926 15.7893 12.5334 15.9475 12.0325C15.9622 11.9857 15.924 11.9711 16.0157 11.9816C16.0942 12.5184 16.5675 12.8025 17.0889 12.8018C17.2011 12.8018 17.2963 12.765 17.3941 12.7643C18.0557 12.7592 18.9618 12.8257 19.5947 12.7165C19.9494 12.6552 20.2045 12.3714 20.2406 12.0164L20.3821 12.3343C20.5086 12.5334 20.8074 12.6691 21.041 12.6661C21.5624 12.6596 22.2871 12.5887 22.8122 12.5269C23.3374 12.4652 23.7882 12.3312 23.9199 11.7436C24.0058 11.7985 24.0126 11.922 24.075 12.014C24.2612 12.2889 24.4805 12.3066 24.7898 12.2903C25.7576 12.2395 26.8618 11.8694 27.8034 11.6416L27.9981 11.6679L29.8474 12.5614C29.8941 12.6841 29.8856 12.753 29.8812 12.8847C29.8416 13.9977 29.605 15.296 29.3366 16.377L29.3025 16.4111C29.2998 16.4217 29.3052 16.4347 29.3025 16.4452C28.8479 17.1222 28.3736 17.7858 27.8211 18.3877C27.7096 18.5091 27.5773 18.6117 27.463 18.728C27.9596 17.8182 27.9718 16.8746 27.6919 15.8931C27.4494 15.044 27.1322 14.9686 26.2524 15.0474C25.982 15.0716 25.7163 15.2534 25.5895 15.4917C24.6496 15.1599 23.6641 14.9366 22.6724 14.8148C22.3133 14.7708 21.8939 14.7245 21.5354 14.7084C19.8443 14.6314 18.3493 14.8356 16.7319 15.2875C16.5614 15.3352 16.4304 15.4239 16.2282 15.4484C15.7617 15.505 15.6317 15.3997 15.2328 15.2875C13.6197 14.8346 12.0811 14.6283 10.3951 14.7084C10.0356 14.7255 9.65062 14.7708 9.29221 14.8148C8.30087 14.9366 7.31431 15.1593 6.37514 15.4917C6.1129 14.998 5.52396 14.9997 5.02982 15.0491C4.50841 15.1013 4.39621 15.46 4.27242 15.8931C3.99245 16.8749 4.00472 17.8182 4.50125 18.728C4.38666 18.6121 4.25469 18.5094 4.14318 18.3877C3.59039 17.7861 3.11637 17.1222 2.66179 16.4452C2.65906 16.4347 2.66452 16.4217 2.66179 16.4111L2.62769 16.377C2.36101 15.3042 2.11753 13.9889 2.08308 12.8847C2.07899 12.7592 2.07217 12.68 2.1165 12.561L3.96585 11.6676L4.16057 11.6413L4.15989 11.6406Z" fill="#333944"/>
<path d="M4.49995 18.7359C6.42739 20.6858 8.64469 21.9289 11.2797 22.688C11.2903 22.691 11.3033 22.6849 11.3138 22.688C12.2939 22.9666 13.2126 23.1777 14.2309 23.2967C16.411 23.5521 18.5427 23.2946 20.6485 22.7217L20.6826 22.6876C22.6428 22.1577 24.5201 21.2107 26.1151 19.9608C26.6116 19.5717 27.0215 19.1823 27.4621 18.7359C27.5767 18.62 27.7086 18.5173 27.8201 18.3956C28.3729 17.794 28.847 17.13 29.3015 16.4531C28.1315 21.0023 25.4221 24.3695 20.9974 26.0859C17.636 27.3896 14.6804 27.4278 11.2872 26.2059C6.70225 24.555 3.85884 21.122 2.66016 16.4531C3.11473 17.13 3.58909 17.7937 4.14154 18.3956C4.25305 18.517 4.38503 18.62 4.49961 18.7359H4.49995Z" fill="#D66664"/>
<path d="M29.8449 12.5684L27.9956 11.6749L27.8008 11.6487C27.8179 11.5699 27.7623 11.5753 27.7118 11.5518C25.529 10.541 22.5358 9.87707 20.1477 9.57492C15.1559 8.94336 8.86885 9.47228 4.25044 11.5559C4.19997 11.5787 4.13893 11.5603 4.15735 11.6483L3.96262 11.6746L2.11328 12.568C2.18899 12.3651 2.76804 11.7356 2.94741 11.5457C4.92975 9.44431 7.96516 7.63794 10.7404 6.83552C12.4618 6.33798 12.6477 7.04832 14.0141 7.63419C15.176 8.13242 16.3245 8.20608 17.5304 7.79992C18.801 7.3716 19.3917 6.398 20.8775 6.73288C23.5971 7.34603 27.0642 9.49922 28.9767 11.5116C29.1659 11.7107 29.7634 12.3532 29.8449 12.568V12.5684Z" fill="#D66664"/>
<path d="M2.6591 16.4169C2.65774 16.4118 2.62909 16.3999 2.625 16.3828L2.6591 16.4169Z" fill="#D66664"/>
<path d="M29.3047 16.4169L29.3388 16.3828C29.3347 16.3999 29.3061 16.4118 29.3047 16.4169Z" fill="#D66664"/>
<path d="M6.37288 15.4994C6.38277 15.5179 6.37595 15.5799 6.39914 15.6246C6.62046 16.0502 6.8527 16.397 6.61842 16.886C6.585 16.9556 6.50383 16.9853 6.50929 17.0661C6.7729 17.0057 7.03957 16.9836 7.28272 17.1275C7.37104 17.1796 8.26929 18.037 8.32965 18.1246C8.46981 18.3292 8.50902 18.6552 8.38285 18.8714C8.54926 18.8455 8.64816 18.7163 8.82412 18.6828C9.2446 18.6027 9.68451 18.9526 10.0634 19.1159C10.7021 19.3915 11.5506 19.4808 11.5175 20.3705L11.7378 20.0974C11.9751 19.8768 12.2053 19.8389 12.5218 19.8604C12.9753 19.8911 13.4821 20.0251 13.9534 20.064C14.4073 20.1015 14.9863 20.0544 15.4106 20.14C15.4893 20.156 15.7171 20.2935 15.7754 20.3542L15.9968 20.746C16.0387 20.4797 16.2747 20.1956 16.5499 20.14C16.9748 20.0544 17.5528 20.1018 18.0071 20.064C18.4797 20.0244 18.982 19.8914 19.4387 19.8604C19.7548 19.8389 19.9853 19.8768 20.2227 20.0974L20.443 20.3705C20.4293 19.5255 21.0421 19.488 21.6345 19.2285C21.8469 19.1354 22.0611 19.0426 22.2718 18.9461C22.7442 18.7296 23.0405 18.4557 23.5428 18.9059C23.4995 18.6296 23.463 18.3691 23.6305 18.1246C23.6908 18.0366 24.5887 17.1796 24.6774 17.1275C24.9205 16.9836 25.1872 17.0061 25.4508 17.0661C25.4563 16.9849 25.3751 16.9552 25.3417 16.886C25.104 16.3905 25.3376 16.0536 25.561 15.6246C25.5842 15.5799 25.5777 15.5179 25.5872 15.4994C25.7141 15.2611 25.9797 15.0793 26.2502 15.0551C27.1303 14.9767 27.4475 15.0517 27.6896 15.9008C27.9696 16.8826 27.9573 17.8259 27.4608 18.7357C27.0202 19.1821 26.6103 19.5715 26.1138 19.9606C24.5188 21.2105 22.6412 22.1575 20.6813 22.6874C20.6735 22.4214 20.6922 22.1527 20.6813 21.8864C20.6796 21.8451 20.7069 21.7599 20.6476 21.7677V22.7215C18.5414 23.2944 16.4097 23.5519 14.2296 23.2965C13.2113 23.1771 12.2923 22.966 11.3125 22.6878L11.2955 21.7677L11.2784 22.6878C8.64372 21.929 6.42608 20.6856 4.49865 18.7357C4.00212 17.8259 3.98985 16.8823 4.26982 15.9008C4.39327 15.4677 4.50547 15.109 5.02723 15.0568C5.52136 15.0074 6.1103 15.0056 6.37254 15.4994H6.37288Z" fill="#FCFCFC"/>
<path d="M4.15765 11.6441C4.13924 11.5561 4.20028 11.5745 4.25075 11.5516C8.8695 9.46801 15.1565 8.93909 20.148 9.57066C22.5362 9.8728 25.5293 10.5368 27.7121 11.5475C27.7626 11.5707 27.8182 11.5656 27.8011 11.6444C26.8592 11.8722 25.7554 12.2422 24.7876 12.293C24.4783 12.3094 24.2593 12.2916 24.0728 12.0168C24.0104 11.9247 24.0036 11.8013 23.9176 11.7464C23.7856 12.3339 23.3451 12.4666 22.81 12.5297C22.2749 12.5928 21.5598 12.6627 21.0387 12.6688C20.8051 12.6715 20.5064 12.5362 20.3799 12.337L20.2384 12.0192C20.2026 12.3742 19.9471 12.6579 19.5925 12.7193C18.9596 12.8284 18.0535 12.7619 17.3919 12.767C17.294 12.7677 17.1989 12.8045 17.0867 12.8045C16.5653 12.8052 16.0916 12.5212 16.0135 11.9844C15.9218 11.9738 15.9603 11.9885 15.9453 12.0352C15.7871 12.5362 15.4396 12.7953 14.9076 12.8042C14.7804 12.8062 14.676 12.7677 14.5672 12.7667C13.8903 12.7612 13.0432 12.8209 12.3885 12.7309C12.0495 12.6845 11.7347 12.3612 11.7208 12.0185L11.5792 12.3363C11.4527 12.5355 11.154 12.6712 10.9204 12.6681C10.4965 12.663 9.92121 12.605 9.48982 12.5628C8.87087 12.5021 8.20111 12.4802 8.04117 11.7453C7.94978 11.7348 7.98797 11.7491 7.97297 11.7958C7.83826 12.2251 7.60228 12.3145 7.17123 12.292C6.20104 12.2408 5.10193 11.8688 4.15765 11.6434V11.6441Z" fill="#FCFCFC"/>
<path d="M15.2336 15.2991C15.2885 15.7373 15.1036 16.4511 15.37 16.8149C15.7836 17.38 16.6727 17.1263 16.734 16.4419C16.7664 16.0783 16.7071 15.6677 16.7327 15.2991C18.3501 14.8469 19.8451 14.643 21.5363 14.7201C21.5158 14.8189 21.585 14.7821 21.644 14.7978C22.4979 15.0246 23.2386 15.5641 22.9842 16.5598C22.8696 17.0086 22.5634 17.2313 22.2081 17.4871C19.0223 19.777 12.828 19.7852 9.66916 17.4397C9.29165 17.1594 8.97178 16.8807 8.92983 16.3736C8.85481 15.4662 9.49251 15.0062 10.2881 14.7978C10.3474 14.7825 10.4163 14.8186 10.3959 14.7201C12.0822 14.6399 13.6205 14.8462 15.2336 15.2991Z" fill="#ED7788"/>
<path d="M10.3969 14.7109C10.417 14.8095 10.3481 14.773 10.2891 14.7887C9.49352 14.9971 8.85582 15.4571 8.93084 16.3645C8.97279 16.8716 9.293 17.1506 9.67017 17.4306C12.829 19.7761 19.0233 19.7676 22.2091 17.478C22.5648 17.2225 22.8706 16.9995 22.9852 16.5507C23.2396 15.555 22.4989 15.0151 21.645 14.7887C21.586 14.773 21.5168 14.8098 21.5373 14.7109C21.8957 14.7273 22.3151 14.7733 22.6742 14.8173C23.6659 14.9391 24.6518 15.1624 25.5913 15.4943C25.5814 15.5127 25.5882 15.5747 25.565 15.6194C25.342 16.0484 25.1084 16.3853 25.3458 16.8808C25.3792 16.9504 25.4603 16.9801 25.4549 17.0609C25.1913 17.0005 24.9246 16.9784 24.6815 17.1223C24.5931 17.1745 23.6949 18.0318 23.6345 18.1194C23.4667 18.3639 23.5032 18.6245 23.5469 18.9007C23.0442 18.4502 22.7482 18.7244 22.2759 18.9409C22.0652 19.0374 21.851 19.1302 21.6385 19.2233C21.0462 19.4831 20.433 19.5203 20.447 20.3654L20.2267 20.0922C19.9897 19.8716 19.7592 19.8337 19.4427 19.8552C18.9861 19.8862 18.4838 20.0196 18.0111 20.0588C17.5569 20.0966 16.9789 20.0489 16.554 20.1348C16.2788 20.1904 16.0428 20.4745 16.0008 20.7408L15.7795 20.349C15.7212 20.2883 15.4934 20.1509 15.4146 20.1348C14.9904 20.0492 14.4113 20.0963 13.9574 20.0588C13.4862 20.0199 12.9794 19.8859 12.5259 19.8552C12.2094 19.8337 11.9792 19.8716 11.7419 20.0922L11.5216 20.3654C11.5543 19.4756 10.7062 19.3866 10.0675 19.1108C9.68858 18.9474 9.24901 18.5975 8.82819 18.6777C8.65223 18.7111 8.55333 18.84 8.38692 18.8662C8.51309 18.65 8.47388 18.324 8.33372 18.1194C8.27336 18.0314 7.37545 17.1745 7.28679 17.1223C7.04364 16.9784 6.77697 17.0009 6.51336 17.0609C6.5079 16.9797 6.58907 16.9501 6.62249 16.8808C6.85711 16.3918 6.62487 16.045 6.40321 15.6194C6.38002 15.5747 6.3865 15.5127 6.37695 15.4943C7.31612 15.1618 8.30268 14.9391 9.29402 14.8173C9.65243 14.7733 10.0374 14.728 10.3969 14.7109Z" fill="#CC576E"/>
<path d="M16.732 15.2891C16.7064 15.6577 16.7657 16.0683 16.7333 16.4318C16.672 17.1166 15.7833 17.37 15.3693 16.8049C15.1026 16.441 15.2878 15.7273 15.2329 15.2891C15.6319 15.4013 15.7618 15.5063 16.2283 15.45C16.4305 15.4255 16.5611 15.3368 16.732 15.2891Z" fill="#CC566D"/>
<path d="M20.6825 22.6937L20.6484 22.7278V21.7739C20.7081 21.7661 20.6808 21.8514 20.6825 21.8926C20.6935 22.1586 20.6747 22.4277 20.6825 22.6937Z" fill="#D0D0D2"/>
<path d="M11.3154 22.6935C11.3048 22.6904 11.2918 22.6966 11.2812 22.6935L11.2983 21.7734L11.3154 22.6935Z" fill="#D1D3D5"/>
</svg>
