<svg width="32" height="32" viewBox="0 0 32 32" fill="none" xmlns="http://www.w3.org/2000/svg">
<path d="M7.23394 4.88281C6.00661 4.88281 5.01172 5.88281 5.01172 7.10503V15.9939V20.4384V27.105C5.01172 28.3273 6.00661 29.3273 7.23394 29.3273H22.7895C24.0173 29.3273 25.0117 28.3273 25.0117 27.105V20.4384V15.9939V11.5495V7.10503C25.0117 5.88281 24.0173 4.88281 22.7895 4.88281H18.3451H7.23394Z" fill="#D0D0D0"/>
<path d="M8.34549 2.66406C7.73182 2.66406 7.23438 3.10851 7.23438 3.77517V7.10851C7.23438 7.66406 7.73182 8.21962 8.34549 8.21962C8.95915 8.21962 9.4566 7.66406 9.4566 7.10851V3.77517C9.4566 3.10851 8.95915 2.66406 8.34549 2.66406ZM12.7899 2.66406C12.1763 2.66406 11.6788 3.10851 11.6788 3.77517V7.10851C11.6788 7.66406 12.1763 8.21962 12.7899 8.21962C13.4033 8.21962 13.901 7.66406 13.901 7.10851V3.77517C13.901 3.10851 13.4033 2.66406 12.7899 2.66406ZM17.2344 2.66406C16.621 2.66406 16.1233 3.10851 16.1233 3.77517V7.10851C16.1233 7.66406 16.621 8.21962 17.2344 8.21962C17.8477 8.21962 18.3455 7.66406 18.3455 7.10851V3.77517C18.3455 3.10851 17.8477 2.66406 17.2344 2.66406ZM21.6788 2.66406C21.0655 2.66406 20.5677 3.10851 20.5677 3.77517V7.10851C20.5677 7.66406 21.0655 8.21962 21.6788 8.21962C22.2922 8.21962 22.7899 7.66406 22.7899 7.10851V3.77517C22.7899 3.10851 22.2922 2.66406 21.6788 2.66406Z" fill="#95A5A6"/>
<path d="M21.679 19.3281H8.3457V20.4392H21.679V19.3281Z" fill="white"/>
<path d="M21.679 16H8.3457V17.1111H21.679V16Z" fill="white"/>
<path d="M21.679 12.6641H8.3457V13.7752H21.679V12.6641Z" fill="white"/>
<path d="M12.7901 22.6641H8.3457V23.7752H12.7901V22.6641Z" fill="white"/>
<path d="M7.23438 7.10938C7.23438 7.66493 7.73182 8.22049 8.34549 8.22049C8.95915 8.22049 9.4566 7.66493 9.4566 7.10938H7.23438ZM11.6788 7.10938C11.6788 7.66493 12.1763 8.22049 12.7899 8.22049C13.4033 8.22049 13.901 7.66493 13.901 7.10938H11.6788ZM16.1233 7.10938C16.1233 7.66493 16.621 8.22049 17.2344 8.22049C17.8477 8.22049 18.3455 7.66493 18.3455 7.10938H16.1233ZM20.5677 7.10938C20.5677 7.66493 21.0655 8.22049 21.6788 8.22049C22.2922 8.22049 22.7899 7.66493 22.7899 7.10938H20.5677Z" fill="#7F8C8D"/>
<path d="M5.01172 26V27.1111C5.01172 28.3333 6.00661 29.3333 7.23394 29.3333H22.7895C24.0173 29.3333 25.0117 28.3333 25.0117 27.1111V26C25.0117 27.2222 24.0173 28.2222 22.7895 28.2222H7.23394C6.00661 28.2222 5.01172 27.2222 5.01172 26Z" fill="#95A5A6"/>
<path d="M22.9668 10.3984L14.0886 19.2766L13.5387 19.8266L12.753 20.6122L12.753 23.755L15.8957 23.755L16.6814 22.9693L17.2314 22.4193L26.1095 13.5411L22.9668 10.3984Z" fill="#ECF0F1"/>
<path d="M24.5371 11.9766L12.7519 23.7617L15.8947 23.7617L16.6803 22.9761L17.2303 22.4261L26.1085 13.5479L24.5371 11.9766Z" fill="#BDC3C7"/>
<path d="M25.3244 14.3224L22.1816 11.1797L13.5392 19.8221L16.6819 22.9649L25.3244 14.3224Z" fill="#E67E22"/>
<path d="M26.8936 9.61042C26.0254 8.74224 24.6152 8.74617 23.7509 9.61042L22.9652 10.3961L26.1079 13.5388L26.8936 12.7531C27.7579 11.8889 27.7618 10.4786 26.8936 9.61042Z" fill="#7F8C8D"/>
<path d="M12.7461 21.5547L12.7508 23.7593L14.9554 23.764L13.8508 22.6593L12.7461 21.5547Z" fill="#34495E"/>
<path d="M13.8535 22.6641L12.7535 23.764L14.9582 23.7687L13.8535 22.6641Z" fill="#2C3E50"/>
<path d="M26.8936 9.61042C26.0254 8.74224 24.6152 8.74617 23.7509 9.61042L22.9652 10.3961L24.5366 11.9675L26.8936 9.61042Z" fill="#95A5A6"/>
<path d="M25.3233 14.3292L23.752 12.7578L15.1095 21.4003L16.6809 22.9716L25.3233 14.3292Z" fill="#D35400"/>
</svg>
