<svg width="20" height="20" viewBox="0 0 20 20" fill="none" xmlns="http://www.w3.org/2000/svg">
<path d="M16.7343 2.51658L16.7604 3.26612L16.7343 2.51658ZM13.7493 2.90799L13.5343 2.1895L13.7493 2.90799ZM11.3942 4.00408L11.0185 3.35496V3.35496L11.3942 4.00408ZM3.31802 2.5642L3.27201 3.31278L3.31802 2.5642ZM5.83268 2.90799L6.02404 2.18282V2.18282L5.83268 2.90799ZM8.56789 4.06467L8.21731 4.72769L8.56789 4.06467ZM11.3557 16.7262L11.7085 17.388L11.3557 16.7262ZM14.166 15.5296L13.9747 14.8044L14.166 15.5296ZM16.6536 15.1875L16.7005 15.936L16.6536 15.1875ZM8.64303 16.7262L8.29023 17.388H8.29023L8.64303 16.7262ZM5.83268 15.5296L6.02404 14.8044L5.83268 15.5296ZM3.34506 15.1875L3.29825 15.936H3.29825L3.34506 15.1875ZM1.66602 13.4548H2.41602V4.16662H1.66602H0.916016V13.4548H1.66602ZM18.3327 13.4548H19.0827V4.11278H18.3327H17.5827V13.4548H18.3327ZM16.7343 2.51658L16.7082 1.76703C15.758 1.80013 14.5044 1.89905 13.5343 2.1895L13.7493 2.90799L13.9644 3.62649C14.7391 3.39457 15.8297 3.29855 16.7604 3.26612L16.7343 2.51658ZM13.7493 2.90799L13.5343 2.1895C12.6905 2.4421 11.7474 2.93311 11.0185 3.35496L11.3942 4.00408L11.7699 4.65321C12.4768 4.24411 13.2955 3.82675 13.9644 3.62649L13.7493 2.90799ZM3.31802 2.5642L3.27201 3.31278C4.07527 3.36215 4.97686 3.45783 5.64132 3.63317L5.83268 2.90799L6.02404 2.18282C5.21098 1.96827 4.18806 1.86625 3.36403 1.81561L3.31802 2.5642ZM5.83268 2.90799L5.64132 3.63317C6.42857 3.84091 7.40486 4.29808 8.21731 4.72769L8.56789 4.06467L8.91848 3.40166C8.08736 2.96218 6.98547 2.43652 6.02404 2.18282L5.83268 2.90799ZM11.3557 16.7262L11.7085 17.388C12.5329 16.9485 13.5451 16.4691 14.3574 16.2548L14.166 15.5296L13.9747 14.8044C12.9846 15.0657 11.8442 15.6158 11.0029 16.0643L11.3557 16.7262ZM14.166 15.5296L14.3574 16.2548C15.0142 16.0814 15.9033 15.9859 16.7005 15.936L16.6536 15.1875L16.6068 14.4389C15.7883 14.4901 14.779 14.5922 13.9747 14.8044L14.166 15.5296ZM8.64303 16.7262L8.99583 16.0643C8.15446 15.6158 7.01415 15.0657 6.02404 14.8044L5.83268 15.5296L5.64132 16.2548C6.45364 16.4691 7.4658 16.9485 8.29023 17.388L8.64303 16.7262ZM5.83268 15.5296L6.02404 14.8044C5.21972 14.5922 4.2104 14.4901 3.39188 14.4389L3.34506 15.1875L3.29825 15.936C4.09544 15.9859 4.98446 16.0814 5.64132 16.2548L5.83268 15.5296ZM18.3327 13.4548H17.5827C17.5827 13.9554 17.1654 14.404 16.6068 14.4389L16.6536 15.1875L16.7005 15.936C17.9899 15.8554 19.0827 14.8058 19.0827 13.4548H18.3327ZM18.3327 4.11278H19.0827C19.0827 2.82822 18.0584 1.72 16.7082 1.76703L16.7343 2.51658L16.7604 3.26612C17.1966 3.25093 17.5827 3.60994 17.5827 4.11278H18.3327ZM1.66602 13.4548H0.916016C0.916016 14.8058 2.00879 15.8554 3.29825 15.936L3.34506 15.1875L3.39188 14.4389C2.83332 14.404 2.41602 13.9554 2.41602 13.4548H1.66602ZM11.3557 16.7262L11.0029 16.0643C10.3794 16.3967 9.61931 16.3967 8.99583 16.0643L8.64303 16.7262L8.29023 17.388C9.35474 17.9554 10.644 17.9554 11.7085 17.388L11.3557 16.7262ZM11.3942 4.00408L11.0185 3.35496C10.3735 3.72827 9.57054 3.74645 8.91848 3.40166L8.56789 4.06467L8.21731 4.72769C9.33278 5.31752 10.6844 5.28143 11.7699 4.65321L11.3942 4.00408ZM1.66602 4.16662H2.41602C2.41602 3.65247 2.82073 3.28505 3.27201 3.31278L3.31802 2.5642L3.36403 1.81561C1.98847 1.73107 0.916016 2.8505 0.916016 4.16662H1.66602Z" fill="#EF4444"/>
<path d="M10 4.87891V17.5005" stroke="#EF4444" stroke-width="1.5"/>
<path d="M4.16602 7.5L7.49935 8.33333" stroke="#EF4444" stroke-width="1.5" stroke-linecap="round"/>
<path d="M4.16602 10.832L7.49935 11.6654" stroke="#EF4444" stroke-width="1.5" stroke-linecap="round"/>
<path d="M15.834 10.832L12.5007 11.6654" stroke="#EF4444" stroke-width="1.5" stroke-linecap="round"/>
<path d="M15.8333 4.58203V7.92394C15.8333 8.15359 15.8333 8.26842 15.7543 8.31483C15.6752 8.36124 15.5671 8.30989 15.3509 8.20719L14.3157 7.71546C14.2426 7.68071 14.206 7.66334 14.1667 7.66334C14.1273 7.66334 14.0907 7.68071 14.0176 7.71546L12.9824 8.20719C12.7662 8.30989 12.6581 8.36124 12.579 8.31483C12.5 8.26842 12.5 8.15359 12.5 7.92394V5.79038" stroke="#EF4444" stroke-width="1.5" stroke-linecap="round"/>
</svg>
