<svg width="32" height="32" viewBox="0 0 32 32" fill="none" xmlns="http://www.w3.org/2000/svg">
<path d="M0 16C0 7.16344 7.16344 0 16 0C24.8366 0 32 7.16344 32 16C32 24.8366 24.8366 32 16 32C7.16344 32 0 24.8366 0 16Z" fill="#C7D2FE"/>
<path d="M22.7343 8.51658L22.7604 9.26612L22.7343 8.51658ZM19.7493 8.90799L19.5343 8.1895L19.7493 8.90799ZM17.3942 10.0041L17.0185 9.35496V9.35496L17.3942 10.0041ZM9.31802 8.5642L9.27201 9.31278L9.31802 8.5642ZM11.8327 8.90799L12.024 8.18282V8.18282L11.8327 8.90799ZM14.5679 10.0647L14.2173 10.7277L14.5679 10.0647ZM17.3557 22.7262L17.7085 23.388L17.3557 22.7262ZM20.166 21.5296L19.9747 20.8044L20.166 21.5296ZM22.6536 21.1875L22.7005 21.936L22.6536 21.1875ZM14.643 22.7262L14.2902 23.388H14.2902L14.643 22.7262ZM11.8327 21.5296L12.024 20.8044L11.8327 21.5296ZM9.34506 21.1875L9.29825 21.936H9.29825L9.34506 21.1875ZM7.66602 19.4548H8.41602V10.1666H7.66602H6.91602V19.4548H7.66602ZM24.3327 19.4548H25.0827V10.1128H24.3327H23.5827V19.4548H24.3327ZM22.7343 8.51658L22.7082 7.76703C21.758 7.80013 20.5044 7.89905 19.5343 8.1895L19.7493 8.90799L19.9644 9.62649C20.7391 9.39457 21.8297 9.29855 22.7604 9.26612L22.7343 8.51658ZM19.7493 8.90799L19.5343 8.1895C18.6905 8.4421 17.7474 8.93311 17.0185 9.35496L17.3942 10.0041L17.7699 10.6532C18.4768 10.2441 19.2955 9.82675 19.9644 9.62649L19.7493 8.90799ZM9.31802 8.5642L9.27201 9.31278C10.0753 9.36215 10.9769 9.45783 11.6413 9.63317L11.8327 8.90799L12.024 8.18282C11.211 7.96827 10.1881 7.86625 9.36403 7.81561L9.31802 8.5642ZM11.8327 8.90799L11.6413 9.63317C12.4286 9.84091 13.4049 10.2981 14.2173 10.7277L14.5679 10.0647L14.9185 9.40166C14.0874 8.96218 12.9855 8.43652 12.024 8.18282L11.8327 8.90799ZM17.3557 22.7262L17.7085 23.388C18.5329 22.9485 19.5451 22.4691 20.3574 22.2548L20.166 21.5296L19.9747 20.8044C18.9846 21.0657 17.8442 21.6158 17.0029 22.0643L17.3557 22.7262ZM20.166 21.5296L20.3574 22.2548C21.0142 22.0814 21.9033 21.9859 22.7005 21.936L22.6536 21.1875L22.6068 20.4389C21.7883 20.4901 20.779 20.5922 19.9747 20.8044L20.166 21.5296ZM14.643 22.7262L14.9958 22.0643C14.1545 21.6158 13.0141 21.0657 12.024 20.8044L11.8327 21.5296L11.6413 22.2548C12.4536 22.4691 13.4658 22.9485 14.2902 23.388L14.643 22.7262ZM11.8327 21.5296L12.024 20.8044C11.2197 20.5922 10.2104 20.4901 9.39188 20.4389L9.34506 21.1875L9.29825 21.936C10.0954 21.9859 10.9845 22.0814 11.6413 22.2548L11.8327 21.5296ZM24.3327 19.4548H23.5827C23.5827 19.9554 23.1654 20.404 22.6068 20.4389L22.6536 21.1875L22.7005 21.936C23.9899 21.8554 25.0827 20.8058 25.0827 19.4548H24.3327ZM24.3327 10.1128H25.0827C25.0827 8.82822 24.0584 7.72 22.7082 7.76703L22.7343 8.51658L22.7604 9.26612C23.1966 9.25093 23.5827 9.60994 23.5827 10.1128H24.3327ZM7.66602 19.4548H6.91602C6.91602 20.8058 8.00879 21.8554 9.29825 21.936L9.34506 21.1875L9.39188 20.4389C8.83332 20.404 8.41602 19.9554 8.41602 19.4548H7.66602ZM17.3557 22.7262L17.0029 22.0643C16.3794 22.3967 15.6193 22.3967 14.9958 22.0643L14.643 22.7262L14.2902 23.388C15.3547 23.9554 16.644 23.9554 17.7085 23.388L17.3557 22.7262ZM17.3942 10.0041L17.0185 9.35496C16.3735 9.72827 15.5705 9.74645 14.9185 9.40166L14.5679 10.0647L14.2173 10.7277C15.3328 11.3175 16.6844 11.2814 17.7699 10.6532L17.3942 10.0041ZM7.66602 10.1666H8.41602C8.41602 9.65247 8.82073 9.28505 9.27201 9.31278L9.31802 8.5642L9.36403 7.81561C7.98847 7.73107 6.91602 8.8505 6.91602 10.1666H7.66602Z" fill="#312E81"/>
<path d="M16 10.8789V23.5005" stroke="#312E81" stroke-width="1.5"/>
<path d="M10.166 13.5L13.4993 14.3333" stroke="#312E81" stroke-width="1.5" stroke-linecap="round"/>
<path d="M10.166 16.832L13.4993 17.6654" stroke="#312E81" stroke-width="1.5" stroke-linecap="round"/>
<path d="M21.834 16.832L18.5007 17.6654" stroke="#312E81" stroke-width="1.5" stroke-linecap="round"/>
<path d="M21.8333 10.582V13.9239C21.8333 14.1536 21.8333 14.2684 21.7543 14.3148C21.6752 14.3612 21.5671 14.3099 21.3509 14.2072L20.3157 13.7155C20.2426 13.6807 20.206 13.6633 20.1667 13.6633C20.1273 13.6633 20.0907 13.6807 20.0176 13.7155L18.9824 14.2072C18.7662 14.3099 18.6581 14.3612 18.579 14.3148C18.5 14.2684 18.5 14.1536 18.5 13.9239V11.7904" stroke="#312E81" stroke-width="1.5" stroke-linecap="round"/>
</svg>
