<svg width="32" height="32" viewBox="0 0 32 32" fill="none" xmlns="http://www.w3.org/2000/svg">
<path d="M7.88322 3.83203C6.60256 3.83203 5.56445 4.87548 5.56445 6.1508V15.4259V20.0634V27.0197C5.56445 28.295 6.60256 29.3384 7.88322 29.3384H24.1146C25.3957 29.3384 26.4333 28.295 26.4333 27.0197V20.0634V15.4259V10.7883L19.477 3.83203H7.88322Z" fill="#95A5A6"/>
<path d="M7.88322 2.66797C6.60256 2.66797 5.56445 3.71141 5.56445 4.98673V14.2618V18.8993V25.8556C5.56445 27.1309 6.60256 28.1744 7.88322 28.1744H24.1146C25.3957 28.1744 26.4333 27.1309 26.4333 25.8556V18.8993V14.2618V9.62426L19.477 2.66797H7.88322Z" fill="#D0D0D0"/>
<path d="M19.4746 14.2695V18.9071H24.1121C24.1121 16.3564 22.0357 14.2695 19.4746 14.2695Z" fill="#E67E22"/>
<path d="M18.3211 15.4258C15.76 15.4258 13.6836 17.5127 13.6836 20.0633C13.6836 22.6139 15.76 24.7008 18.3211 24.7008C20.8822 24.7008 22.9586 22.6139 22.9586 20.0633H18.3211V15.4258Z" fill="#D35400"/>
<path d="M22.9595 8.46484H9.04688V9.62423H22.9595V8.46484Z" fill="white"/>
<path d="M12.525 15.4258H9.04688V17.7445H12.525V15.4258Z" fill="white"/>
<path d="M12.525 18.8984H9.04688V21.2172H12.525V18.8984Z" fill="white"/>
<path d="M12.525 22.3828H9.04688V24.7016H12.525V22.3828Z" fill="white"/>
<path d="M22.9595 10.7852H9.04688V11.9445H22.9595V10.7852Z" fill="white"/>
<path d="M26.4348 9.62426L19.4785 2.66797V7.3055C19.4785 8.58082 20.5162 9.62426 21.7973 9.62426H26.4348Z" fill="#95A5A6"/>
</svg>
