<svg width="32" height="32" viewBox="0 0 32 32" fill="none" xmlns="http://www.w3.org/2000/svg">
<path d="M10.1877 3.61892C11.8406 3.50169 13.5226 3.97049 14.791 5.26C16.3361 6.78397 16.8167 9.01134 16.2927 11.0042L27.3286 22.0237C28.4821 23.196 28.4821 25.0717 27.3286 26.1267C26.1739 27.299 24.3029 27.299 23.1494 26.1267L12.1139 15.1072C10.1436 15.6934 7.97842 15.2245 6.43312 13.5833C5.16459 12.411 4.63495 10.6526 4.76801 9.0114L5.38826 8.42526L9.56733 12.6454L12.7016 11.5904L13.7465 8.42526L9.56733 4.20506L10.1877 3.61892ZM24.1941 23.0788C23.6174 23.6649 23.6174 24.6027 24.1941 25.0716C24.7709 25.6578 25.7064 25.6578 26.2832 25.0716C26.8611 24.6027 26.8611 23.6649 26.2832 23.0788C25.7064 22.4927 24.7709 22.4927 24.1941 23.0788Z" fill="#7F8C8D"/>
<path d="M10.508 2.67872C12.1609 2.56149 13.8435 3.14763 15.1119 4.43714C16.657 5.96111 17.1376 8.07128 16.6136 10.0642L27.6483 21.0835C28.803 22.2558 28.803 24.1316 27.6483 25.3038C26.4948 26.4761 24.6238 26.4761 23.4691 25.3038L12.4342 14.2844C10.4639 14.7533 8.29885 14.2843 6.75343 12.7603C5.4849 11.4708 4.95526 9.82959 5.08832 8.18839L5.70869 7.48505L9.88765 11.7052L13.022 10.6503L14.0663 7.48505L9.88765 3.38206L10.508 2.67872ZM24.5145 22.1386C23.9365 22.7247 23.9365 23.6626 24.5145 24.2488C25.0912 24.8349 26.0267 24.8349 26.6035 24.2488C27.1802 23.6626 27.1802 22.7247 26.6035 22.1386C26.0267 21.5525 25.0912 21.5525 24.5145 22.1386Z" fill="#95A5A6"/>
<path d="M27.5672 4.32031L23.6107 5.8442L24.783 7.01648L16.4668 15.3398L14.0496 12.9952L11.9611 15.1053C12.3567 16.1603 12.2428 17.2154 11.5582 17.9188C11.4725 17.9188 11.3986 18.036 11.3017 18.036C11.0114 18.2704 10.6746 18.3877 10.3126 18.5049C9.83005 18.5049 9.29221 18.505 8.77406 18.2705L2.94922 24.0146L5.36705 26.4765L8.95717 30.1105L14.7822 24.2491C14.386 23.1941 14.4634 22.139 15.148 21.4356C15.8326 20.7323 16.8959 20.615 17.9322 21.0839L20.0575 18.9739L17.6766 16.5121L25.9916 8.18876L27.2002 9.47839L28.7758 5.4926L27.5672 4.32031Z" fill="#7F8C8D"/>
<path d="M14.1782 11.8203L12.0659 13.9303C12.4615 14.8682 12.3588 16.0405 11.6741 16.6266C10.9894 17.33 9.91977 17.4473 8.88347 17.0956L3.06836 22.8397L9.06518 28.8184L14.8804 23.0742C14.4853 22.0191 14.5873 20.9641 15.2719 20.2607C15.9566 19.5573 17.0269 19.44 18.0632 19.909L20.1744 17.7989L14.1782 11.8203Z" fill="#F39C12"/>
<path d="M17.7754 15.3402L26.108 7.0169L27.3073 8.30653L28.8851 4.32073L27.6859 3.03125L23.7095 4.67233L24.9088 5.84462L16.5762 14.1679L17.7754 15.3402Z" fill="#BDC3C7"/>
<path d="M5.46709 25.3016L16.5767 14.1649L14.1782 11.8203L12.0659 13.9303C12.4615 14.8682 12.3588 16.0405 11.6741 16.6266C10.9894 17.33 9.91977 17.4473 8.88347 17.0956L3.06836 22.8397L5.46709 25.3016Z" fill="#F1C40F"/>
</svg>
