<svg width="16" height="16" viewBox="0 0 16 16" fill="none" xmlns="http://www.w3.org/2000/svg">
<path fill-rule="evenodd" clip-rule="evenodd" d="M13.4072 3.80566C13.4993 4.49072 13.5 5.394 13.5 6.66504V9.33203C13.5 10.6032 13.4993 11.5063 13.4072 12.1914C13.3171 12.862 13.1473 13.2481 12.8652 13.5303C12.5831 13.8124 12.1969 13.9821 11.5264 14.0723C10.8413 14.1644 9.93804 14.165 8.66699 14.165H7.33301C6.06197 14.165 5.15868 14.1644 4.47363 14.0723C3.80306 13.9821 3.41687 13.8124 3.13477 13.5303C2.85272 13.2481 2.68293 12.862 2.59277 12.1914C2.50068 11.5063 2.5 10.6032 2.5 9.33203V6.66504C2.5 5.394 2.50067 4.49072 2.59277 3.80566C2.68296 3.13507 2.85266 2.74891 3.13477 2.4668C3.41688 2.18469 3.80304 2.01499 4.47363 1.9248C5.15868 1.8327 6.06197 1.83203 7.33301 1.83203H8.66699C9.93804 1.83203 10.8413 1.8327 11.5264 1.9248C12.197 2.01499 12.5831 2.18469 12.8652 2.4668C13.1473 2.74891 13.317 3.13507 13.4072 3.80566ZM14.5 9.3539V9.33203V6.66504V6.64397V6.64395C14.5 5.41119 14.5 4.43566 14.3975 3.67285C14.2924 2.89124 14.0712 2.25867 13.5723 1.75977C13.0734 1.26086 12.4408 1.03966 11.6592 0.93457C10.8964 0.832025 9.92082 0.832028 8.68804 0.832031H8.66699H7.33301H7.31196C6.07918 0.832028 5.10363 0.832025 4.34082 0.93457C3.55921 1.03966 2.92664 1.26086 2.42773 1.75977C1.92883 2.25867 1.70762 2.89124 1.60254 3.67285C1.49999 4.43566 1.5 5.41121 1.5 6.64399V6.66504V9.33203V9.35391C1.5 10.5865 1.49999 11.5625 1.60254 12.3252C1.70765 13.1066 1.92894 13.7395 2.42773 14.2383C2.92659 14.737 3.55938 14.9584 4.34082 15.0635C5.0967 15.1651 6.06153 15.1651 7.27845 15.165H7.33301H8.66699H8.72155C9.93847 15.1651 10.9033 15.1651 11.6592 15.0635C12.4406 14.9584 13.0734 14.737 13.5723 14.2383C14.0711 13.7395 14.2923 13.1066 14.3975 12.3252C14.5 11.5625 14.5 10.5865 14.5 9.3539ZM11.1663 7.9987C11.1663 7.72256 10.9425 7.4987 10.6663 7.4987H5.33333C5.05719 7.4987 4.83333 7.72256 4.83333 7.9987C4.83333 8.27484 5.05719 8.4987 5.33333 8.4987H10.6663C10.9425 8.4987 11.1663 8.27484 11.1663 7.9987ZM10.6663 4.83203C10.9425 4.83203 11.1663 5.05589 11.1663 5.33203C11.1663 5.60817 10.9425 5.83203 10.6663 5.83203H5.33333C5.05719 5.83203 4.83333 5.60817 4.83333 5.33203C4.83333 5.05589 5.05719 4.83203 5.33333 4.83203H10.6663ZM9.16634 10.6654C9.16634 10.3892 8.94248 10.1654 8.66634 10.1654H5.33333C5.05719 10.1654 4.83333 10.3892 4.83333 10.6654C4.83333 10.9415 5.05719 11.1654 5.33333 11.1654H8.66634C8.94248 11.1654 9.16634 10.9415 9.16634 10.6654Z" fill="#3B82F6"/>
</svg>
