<svg width="20" height="20" viewBox="0 0 20 20" fill="none" xmlns="http://www.w3.org/2000/svg">
<path d="M9.99919 10.084C11.944 10.084 13.7422 10.5259 15.0802 11.2783C16.3948 12.0178 17.4151 13.1573 17.4152 14.584C17.4152 15.5544 17.4559 16.8808 16.3058 17.8174C15.7598 18.262 15.0041 18.5716 14.0021 18.7744C12.9967 18.9779 11.6913 19.084 9.99919 19.084C8.30717 19.084 7.00168 18.9779 5.99626 18.7744C4.99428 18.5716 4.23762 18.262 3.69158 17.8174C2.5421 16.8809 2.5822 15.5542 2.5822 14.584C2.58236 13.1574 3.60268 12.0178 4.91716 11.2783C6.25523 10.5257 8.05409 10.0841 9.99919 10.084ZM9.99919 11.584C8.26286 11.5841 6.72709 11.9815 5.65251 12.5859C4.55467 13.2035 4.08236 13.9399 4.0822 14.584C4.0822 15.6843 4.12271 16.2337 4.63884 16.6543C4.92594 16.8881 5.42096 17.1271 6.29314 17.3037C7.16251 17.4797 8.35854 17.584 9.99919 17.584C11.6397 17.584 12.8349 17.4796 13.7043 17.3037C14.5767 17.1271 15.0713 16.8881 15.3586 16.6543C15.8752 16.2336 15.9152 15.6847 15.9152 14.584C15.9151 13.9398 15.4429 13.2036 14.3449 12.5859C13.2703 11.9817 11.7352 11.584 9.99919 11.584ZM9.99919 0.917969C12.2542 0.918072 14.083 2.74603 14.0832 5.00098C14.083 7.25593 12.2542 9.08486 9.99919 9.08496C7.74429 9.08479 5.91636 7.25588 5.91619 5.00098C5.91636 2.74607 7.74429 0.918145 9.99919 0.917969ZM9.99919 2.41797C8.57272 2.41814 7.41636 3.5745 7.41619 5.00098C7.41636 6.42745 8.57272 7.58478 9.99919 7.58496C11.4257 7.58486 12.583 6.4275 12.5832 5.00098C12.583 3.57445 11.4257 2.41807 9.99919 2.41797Z" fill="#9CA3AF"/>
</svg>
