<svg width="32" height="32" viewBox="0 0 32 32" fill="none" xmlns="http://www.w3.org/2000/svg">
<path d="M16.0007 14.6641C14.2981 14.6641 12.675 14.9307 11.209 15.5973C12.0737 17.3307 13.8901 18.6641 16.0007 18.6641C18.1114 18.6641 19.9274 17.3307 20.7927 15.5973C19.3261 14.9307 17.7034 14.6641 16.0007 14.6641Z" fill="#95A5A6"/>
<path d="M11.2089 16.9297C7.36145 18.663 4.57145 22.2631 4.08398 26.6631C4.08398 28.1298 5.19452 29.3298 6.66732 29.3298H25.334C26.8073 29.3298 27.918 28.1298 27.918 26.6631C27.43 22.2631 24.6393 18.663 20.7927 16.9297C19.9273 18.663 18.1113 19.9964 16.0007 19.9964C13.89 19.9964 12.0736 18.663 11.2089 16.9297Z" fill="#FEC701"/>
<path d="M11.2089 15.5938C7.36145 17.3271 4.57145 20.9271 4.08398 25.3271C4.08398 26.7938 5.19452 27.9938 6.66732 27.9938H25.334C26.8073 27.9938 27.918 26.7938 27.918 25.3271C27.43 20.9271 24.6393 17.3271 20.7927 15.5938C19.9273 17.3271 18.1113 18.6605 16.0007 18.6605C13.89 18.6605 12.0736 17.3271 11.2089 15.5938Z" fill="#FED84D"/>
<path d="M16.0013 14.6641C14.472 14.6641 13.013 14.9734 11.668 15.4974C12.922 16.3187 14.3973 16.8307 16.0013 16.8307C17.6093 16.8307 19.0786 16.3227 20.3346 15.4974C18.9893 14.9734 17.5306 14.6641 16.0013 14.6641Z" fill="#7F8C8D"/>
<path d="M22.6673 9.33073C22.6673 11.0988 21.9649 12.7945 20.7147 14.0448C19.4645 15.295 17.7688 15.9974 16.0007 15.9974C14.2325 15.9974 12.5368 15.295 11.2866 14.0448C10.0364 12.7945 9.33398 11.0988 9.33398 9.33073C9.33398 7.56262 10.0364 5.86693 11.2866 4.61668C12.5368 3.36644 14.2325 2.66406 16.0007 2.66406C17.7688 2.66406 19.4645 3.36644 20.7147 4.61668C21.9649 5.86693 22.6673 7.56262 22.6673 9.33073Z" fill="#D0D0D0"/>
<path d="M11.2083 15.5938C10.7853 15.8604 10.3957 15.9938 10 16.2604C11.0871 18.3938 13.388 19.9938 16 19.9938C18.612 19.9938 20.9133 18.3938 22 16.2604C21.604 15.9938 21.2147 15.8604 20.792 15.5938C19.9267 17.3271 18.1107 18.6605 16 18.6605C13.8893 18.6605 12.0729 17.3271 11.2083 15.5938Z" fill="#FEC701"/>
</svg>
